<svg width="73" height="69" viewBox="0 0 73 69" fill="none" xmlns="http://www.w3.org/2000/svg">
<path d="M7 6.32453H11.6957V3.14573C17.087 1.55633 29.6435 0.390766 36.7391 8.44374C42.5826 2.08613 55.5217 2.26273 61.2609 3.14573V6.32453H67V45C57.8174 39.9139 43 41.1148 36.7391 42.351C23.3826 39.3841 11.3478 42.8808 7 45V6.32453Z" fill="white"/>
<path d="M11.6957 6.32453H7V45C11.3478 42.8808 23.3826 39.3841 36.7391 42.351M11.6957 6.32453V3.14573C17.087 1.55633 29.6435 0.390766 36.7391 8.44374M11.6957 6.32453V38.1126C17.9565 37.7594 31.5217 37.053 36.7391 42.351M36.7391 8.44374C42.5826 2.08613 55.5217 2.26273 61.2609 3.14573V6.32453M36.7391 8.44374V42.351M36.7391 42.351C43 37.2649 55.6957 37.053 61.2609 37.5828V6.32453M36.7391 42.351C43 41.1148 57.8174 39.9139 67 45V6.32453H61.2609" stroke="black" stroke-width="3"/>
<path d="M11.84 51.8V63H10V55.016L6.592 60.648H6.368L2.96 55V63H1.12V51.8H3.104L6.48 57.4L9.872 51.8H11.84ZM19.3531 55H21.1931L18.1211 63.256C17.3531 65.3253 16.0518 66.3067 14.2171 66.2V64.584C14.7611 64.616 15.1985 64.4987 15.5291 64.232C15.8598 63.976 16.1318 63.5707 16.3451 63.016L16.4251 62.856L13.0331 55H14.9211L17.3051 60.808L19.3531 55ZM30.8016 54.792C31.9003 54.792 32.839 55.1973 33.6176 56.008C34.3963 56.8187 34.7856 57.816 34.7856 59C34.7856 60.1733 34.3963 61.1707 33.6176 61.992C32.839 62.8027 31.9003 63.208 30.8016 63.208C29.5856 63.208 28.6523 62.7547 28.0016 61.848V63H26.2736V51.8H28.0016V56.136C28.6523 55.24 29.5856 54.792 30.8016 54.792ZM28.7216 60.84C29.2016 61.32 29.8043 61.56 30.5296 61.56C31.255 61.56 31.8576 61.32 32.3376 60.84C32.8176 60.3493 33.0576 59.736 33.0576 59C33.0576 58.264 32.8176 57.656 32.3376 57.176C31.8576 56.6853 31.255 56.44 30.5296 56.44C29.8043 56.44 29.2016 56.6853 28.7216 57.176C28.2416 57.656 28.0016 58.264 28.0016 59C28.0016 59.736 28.2416 60.3493 28.7216 60.84ZM40.1278 63.208C38.9544 63.208 37.9571 62.8027 37.1358 61.992C36.3144 61.1813 35.9038 60.184 35.9038 59C35.9038 57.816 36.3144 56.8187 37.1358 56.008C37.9571 55.1973 38.9544 54.792 40.1278 54.792C41.3118 54.792 42.3091 55.1973 43.1198 56.008C43.9411 56.8187 44.3518 57.816 44.3518 59C44.3518 60.184 43.9411 61.1813 43.1198 61.992C42.3091 62.8027 41.3118 63.208 40.1278 63.208ZM38.3518 60.808C38.8318 61.288 39.4238 61.528 40.1278 61.528C40.8318 61.528 41.4238 61.288 41.9038 60.808C42.3838 60.328 42.6238 59.7253 42.6238 59C42.6238 58.2747 42.3838 57.672 41.9038 57.192C41.4238 56.712 40.8318 56.472 40.1278 56.472C39.4238 56.472 38.8318 56.712 38.3518 57.192C37.8718 57.672 37.6318 58.2747 37.6318 59C37.6318 59.7253 37.8718 60.328 38.3518 60.808ZM49.6903 63.208C48.5169 63.208 47.5196 62.8027 46.6983 61.992C45.8769 61.1813 45.4663 60.184 45.4663 59C45.4663 57.816 45.8769 56.8187 46.6983 56.008C47.5196 55.1973 48.5169 54.792 49.6903 54.792C50.8743 54.792 51.8716 55.1973 52.6823 56.008C53.5036 56.8187 53.9143 57.816 53.9143 59C53.9143 60.184 53.5036 61.1813 52.6823 61.992C51.8716 62.8027 50.8743 63.208 49.6903 63.208ZM47.9143 60.808C48.3943 61.288 48.9863 61.528 49.6903 61.528C50.3943 61.528 50.9863 61.288 51.4663 60.808C51.9463 60.328 52.1863 59.7253 52.1863 59C52.1863 58.2747 51.9463 57.672 51.4663 57.192C50.9863 56.712 50.3943 56.472 49.6903 56.472C48.9863 56.472 48.3943 56.712 47.9143 57.192C47.4343 57.672 47.1943 58.2747 47.1943 59C47.1943 59.7253 47.4343 60.328 47.9143 60.808ZM62.5487 63H60.4848L57.2048 59.304V63H55.4768V51.8H57.2048V58.536L60.3088 55H62.4208L58.9008 58.92L62.5487 63ZM64.7006 57.208C64.7006 57.4747 64.8446 57.688 65.1326 57.848C65.4313 57.9973 65.7886 58.1307 66.2046 58.248C66.6313 58.3547 67.058 58.4827 67.4846 58.632C67.9113 58.7813 68.2686 59.0373 68.5566 59.4C68.8553 59.752 69.0046 60.2 69.0046 60.744C69.0046 61.512 68.706 62.1147 68.1086 62.552C67.522 62.9893 66.7806 63.208 65.8846 63.208C65.0953 63.208 64.418 63.0427 63.8526 62.712C63.2873 62.3813 62.8766 61.9227 62.6206 61.336L64.1086 60.472C64.386 61.24 64.978 61.624 65.8846 61.624C66.7913 61.624 67.2446 61.3253 67.2446 60.728C67.2446 60.472 67.0953 60.264 66.7966 60.104C66.5086 59.944 66.1513 59.8107 65.7246 59.704C65.3086 59.5867 64.8873 59.4533 64.4606 59.304C64.034 59.1547 63.6713 58.9093 63.3726 58.568C63.0846 58.216 62.9406 57.7733 62.9406 57.24C62.9406 56.504 63.218 55.912 63.7726 55.464C64.338 55.016 65.0366 54.792 65.8686 54.792C66.53 54.792 67.1166 54.9413 67.6286 55.24C68.1513 55.528 68.5513 55.9333 68.8286 56.456L67.3726 57.272C67.0953 56.664 66.594 56.36 65.8686 56.36C65.538 56.36 65.2606 56.4347 65.0366 56.584C64.8126 56.7227 64.7006 56.9307 64.7006 57.208Z" fill="black"/>
</svg>
