<svg width="197" height="35" viewBox="0 0 197 35" fill="none" xmlns="http://www.w3.org/2000/svg">
<path d="M19.8 16.576C21.336 17.312 22.552 18.368 23.448 19.744C24.376 21.12 24.84 22.704 24.84 24.496C24.84 27.184 23.896 29.44 22.008 31.264C20.12 33.088 17.816 34 15.096 34H0.6V0.399998H14.04C16.664 0.399998 18.888 1.28 20.712 3.04C22.536 4.8 23.448 6.976 23.448 9.568C23.448 12.544 22.232 14.88 19.8 16.576ZM14.04 4.576H5.064V14.848H14.04C15.448 14.848 16.632 14.352 17.592 13.36C18.552 12.368 19.032 11.152 19.032 9.712C19.032 8.304 18.536 7.104 17.544 6.112C16.584 5.088 15.416 4.576 14.04 4.576ZM15.096 29.824C16.6 29.824 17.864 29.296 18.888 28.24C19.912 27.184 20.424 25.888 20.424 24.352C20.424 22.848 19.896 21.568 18.84 20.512C17.816 19.456 16.568 18.928 15.096 18.928H5.064V29.824H15.096ZM50.0959 30.976C47.6319 33.408 44.6399 34.624 41.1199 34.624C37.5999 34.624 34.6079 33.408 32.1439 30.976C29.7119 28.544 28.4959 25.552 28.4959 22C28.4959 18.448 29.7119 15.456 32.1439 13.024C34.6079 10.592 37.5999 9.376 41.1199 9.376C44.6399 9.376 47.6319 10.592 50.0959 13.024C52.5599 15.456 53.7919 18.448 53.7919 22C53.7919 25.552 52.5599 28.544 50.0959 30.976ZM41.1199 30.544C43.5199 30.544 45.5359 29.728 47.1679 28.096C48.7999 26.464 49.6159 24.432 49.6159 22C49.6159 19.568 48.7999 17.536 47.1679 15.904C45.5359 14.272 43.5199 13.456 41.1199 13.456C38.7519 13.456 36.7519 14.272 35.1199 15.904C33.4879 17.536 32.6719 19.568 32.6719 22C32.6719 24.432 33.4879 26.464 35.1199 28.096C36.7519 29.728 38.7519 30.544 41.1199 30.544ZM78.9709 30.976C76.5069 33.408 73.5149 34.624 69.9949 34.624C66.4749 34.624 63.4829 33.408 61.0189 30.976C58.5869 28.544 57.3709 25.552 57.3709 22C57.3709 18.448 58.5869 15.456 61.0189 13.024C63.4829 10.592 66.4749 9.376 69.9949 9.376C73.5149 9.376 76.5069 10.592 78.9709 13.024C81.4349 15.456 82.6669 18.448 82.6669 22C82.6669 25.552 81.4349 28.544 78.9709 30.976ZM69.9949 30.544C72.3949 30.544 74.4109 29.728 76.0429 28.096C77.6749 26.464 78.4909 24.432 78.4909 22C78.4909 19.568 77.6749 17.536 76.0429 15.904C74.4109 14.272 72.3949 13.456 69.9949 13.456C67.6269 13.456 65.6269 14.272 63.9949 15.904C62.3629 17.536 61.5469 19.568 61.5469 22C61.5469 24.432 62.3629 26.464 63.9949 28.096C65.6269 29.728 67.6269 30.544 69.9949 30.544ZM107.894 34H102.71L91.7659 22.624V34H87.5899V0.399998H91.7659V20.608L102.134 10H107.51L96.0379 21.616L107.894 34Z" fill="white"/>
<path d="M131.889 0.399998H137.409V34H131.889V19.456H117.489V34H111.969V0.399998H117.489V14.176H131.889V0.399998ZM159.966 10H165.15V34H159.966V30.928C158.398 33.392 155.918 34.624 152.526 34.624C149.774 34.624 147.55 33.744 145.854 31.984C144.158 30.224 143.31 27.808 143.31 24.736V10H148.494V24.208C148.494 26 148.974 27.376 149.934 28.336C150.894 29.296 152.206 29.776 153.87 29.776C155.694 29.776 157.166 29.216 158.286 28.096C159.406 26.944 159.966 25.2 159.966 22.864V10ZM184.796 9.376C188.092 9.376 190.908 10.592 193.244 13.024C195.58 15.456 196.748 18.448 196.748 22C196.748 25.52 195.58 28.512 193.244 30.976C190.908 33.408 188.092 34.624 184.796 34.624C181.148 34.624 178.348 33.264 176.396 30.544V34H171.212V0.399998H176.396V13.408C178.348 10.72 181.148 9.376 184.796 9.376ZM178.556 27.52C179.996 28.96 181.804 29.68 183.98 29.68C186.156 29.68 187.964 28.96 189.404 27.52C190.844 26.048 191.564 24.208 191.564 22C191.564 19.792 190.844 17.968 189.404 16.528C187.964 15.056 186.156 14.32 183.98 14.32C181.804 14.32 179.996 15.056 178.556 16.528C177.116 17.968 176.396 19.792 176.396 22C176.396 24.208 177.116 26.048 178.556 27.52Z" fill="#C9B964"/>
</svg>
