<svg width="393" height="70" viewBox="0 0 393 70" fill="none" xmlns="http://www.w3.org/2000/svg">
<path d="M38.6 33.152C41.672 34.624 44.104 36.736 45.896 39.488C47.752 42.24 48.68 45.408 48.68 48.992C48.68 54.368 46.792 58.88 43.016 62.528C39.24 66.176 34.632 68 29.192 68H0.2V0.799995H27.08C32.328 0.799995 36.776 2.56 40.424 6.08C44.072 9.6 45.896 13.952 45.896 19.136C45.896 25.088 43.464 29.76 38.6 33.152ZM27.08 9.152H9.128V29.696H27.08C29.896 29.696 32.264 28.704 34.184 26.72C36.104 24.736 37.064 22.304 37.064 19.424C37.064 16.608 36.072 14.208 34.088 12.224C32.168 10.176 29.832 9.152 27.08 9.152ZM29.192 59.648C32.2 59.648 34.728 58.592 36.776 56.48C38.824 54.368 39.848 51.776 39.848 48.704C39.848 45.696 38.792 43.136 36.68 41.024C34.632 38.912 32.136 37.856 29.192 37.856H9.128V59.648H29.192ZM99.1918 61.952C94.2638 66.816 88.2798 69.248 81.2398 69.248C74.1998 69.248 68.2158 66.816 63.2878 61.952C58.4238 57.088 55.9918 51.104 55.9918 44C55.9918 36.896 58.4238 30.912 63.2878 26.048C68.2158 21.184 74.1998 18.752 81.2398 18.752C88.2798 18.752 94.2638 21.184 99.1918 26.048C104.12 30.912 106.584 36.896 106.584 44C106.584 51.104 104.12 57.088 99.1918 61.952ZM81.2398 61.088C86.0398 61.088 90.0718 59.456 93.3358 56.192C96.5998 52.928 98.2318 48.864 98.2318 44C98.2318 39.136 96.5998 35.072 93.3358 31.808C90.0718 28.544 86.0398 26.912 81.2398 26.912C76.5038 26.912 72.5038 28.544 69.2398 31.808C65.9758 35.072 64.3438 39.136 64.3438 44C64.3438 48.864 65.9758 52.928 69.2398 56.192C72.5038 59.456 76.5038 61.088 81.2398 61.088ZM156.942 61.952C152.014 66.816 146.03 69.248 138.99 69.248C131.95 69.248 125.966 66.816 121.038 61.952C116.174 57.088 113.742 51.104 113.742 44C113.742 36.896 116.174 30.912 121.038 26.048C125.966 21.184 131.95 18.752 138.99 18.752C146.03 18.752 152.014 21.184 156.942 26.048C161.87 30.912 164.334 36.896 164.334 44C164.334 51.104 161.87 57.088 156.942 61.952ZM138.99 61.088C143.79 61.088 147.822 59.456 151.086 56.192C154.35 52.928 155.982 48.864 155.982 44C155.982 39.136 154.35 35.072 151.086 31.808C147.822 28.544 143.79 26.912 138.99 26.912C134.254 26.912 130.254 28.544 126.99 31.808C123.726 35.072 122.094 39.136 122.094 44C122.094 48.864 123.726 52.928 126.99 56.192C130.254 59.456 134.254 61.088 138.99 61.088ZM214.788 68H204.42L182.532 45.248V68H174.18V0.799995H182.532V41.216L203.268 20H214.02L191.076 43.232L214.788 68Z" fill="#6474C9"/>
<path d="M262.779 0.799995H273.819V68H262.779V38.912H233.979V68H222.939V0.799995H233.979V28.352H262.779V0.799995ZM318.931 20H329.299V68H318.931V61.856C315.795 66.784 310.835 69.248 304.051 69.248C298.547 69.248 294.099 67.488 290.707 63.968C287.315 60.448 285.619 55.616 285.619 49.472V20H295.987V48.416C295.987 52 296.947 54.752 298.867 56.672C300.787 58.592 303.411 59.552 306.739 59.552C310.387 59.552 313.331 58.432 315.571 56.192C317.811 53.888 318.931 50.4 318.931 45.728V20ZM368.591 18.752C375.183 18.752 380.815 21.184 385.487 26.048C390.159 30.912 392.495 36.896 392.495 44C392.495 51.04 390.159 57.024 385.487 61.952C380.815 66.816 375.183 69.248 368.591 69.248C361.295 69.248 355.695 66.528 351.791 61.088V68H341.423V0.799995H351.791V26.816C355.695 21.44 361.295 18.752 368.591 18.752ZM356.111 55.04C358.991 57.92 362.607 59.36 366.959 59.36C371.311 59.36 374.927 57.92 377.807 55.04C380.687 52.096 382.127 48.416 382.127 44C382.127 39.584 380.687 35.936 377.807 33.056C374.927 30.112 371.311 28.64 366.959 28.64C362.607 28.64 358.991 30.112 356.111 33.056C353.231 35.936 351.791 39.584 351.791 44C351.791 48.416 353.231 52.096 356.111 55.04Z" fill="#C9B964"/>
</svg>
