<svg width="53" height="66" viewBox="0 0 53 66" fill="none" xmlns="http://www.w3.org/2000/svg">
<path d="M14.416 64.208C12.7307 64.208 11.3333 63.6533 10.224 62.544C9.11467 61.424 8.56 60.0427 8.56 58.4C8.56 56.7573 9.11467 55.3813 10.224 54.272C11.3333 53.152 12.7307 52.592 14.416 52.592C15.4293 52.592 16.3627 52.832 17.216 53.312C18.08 53.792 18.752 54.4427 19.232 55.264L17.632 56.192C17.3333 55.6373 16.896 55.2 16.32 54.88C15.7547 54.5493 15.12 54.384 14.416 54.384C13.2213 54.384 12.2507 54.7627 11.504 55.52C10.768 56.2773 10.4 57.2373 10.4 58.4C10.4 59.5627 10.768 60.5227 11.504 61.28C12.2507 62.0373 13.2213 62.416 14.416 62.416C15.12 62.416 15.76 62.256 16.336 61.936C16.912 61.6053 17.344 61.1627 17.632 60.608L19.232 61.52C18.7627 62.3413 18.096 62.9973 17.232 63.488C16.3787 63.968 15.44 64.208 14.416 64.208ZM26.969 56H28.697V64H26.969V62.848C26.3183 63.7547 25.385 64.208 24.169 64.208C23.0703 64.208 22.1317 63.8027 21.353 62.992C20.5743 62.1707 20.185 61.1733 20.185 60C20.185 58.816 20.5743 57.8187 21.353 57.008C22.1317 56.1973 23.0703 55.792 24.169 55.792C25.385 55.792 26.3183 56.24 26.969 57.136V56ZM22.633 61.84C23.113 62.32 23.7157 62.56 24.441 62.56C25.1663 62.56 25.769 62.32 26.249 61.84C26.729 61.3493 26.969 60.736 26.969 60C26.969 59.264 26.729 58.656 26.249 58.176C25.769 57.6853 25.1663 57.44 24.441 57.44C23.7157 57.44 23.113 57.6853 22.633 58.176C22.153 58.656 21.913 59.264 21.913 60C21.913 60.736 22.153 61.3493 22.633 61.84ZM32.4391 57.344C32.8765 56.352 33.6978 55.856 34.9031 55.856V57.728C34.2418 57.6853 33.6658 57.8453 33.1751 58.208C32.6845 58.56 32.4391 59.1467 32.4391 59.968V64H30.7111V56H32.4391V57.344ZM40.847 57.664H38.863V61.504C38.863 61.8347 38.9377 62.0747 39.087 62.224C39.2363 62.3627 39.455 62.4427 39.743 62.464C40.0417 62.4747 40.4097 62.4693 40.847 62.448V64C39.5243 64.16 38.575 64.048 37.999 63.664C37.423 63.2693 37.135 62.5493 37.135 61.504V57.664H35.663V56H37.135V54.272L38.863 53.76V56H40.847V57.664Z" fill="black"/>
<path d="M51 7.56579H6.95238L9.92857 26.7368H45.6429L51 7.56579Z" fill="white"/>
<path d="M43.2619 44.6711C43.2619 41.7026 40.6825 40.3421 39.0952 40.3421C37.5079 40.3421 34.9286 41.5789 34.9286 44.6711C34.9286 47.7632 37.9048 49 39.0952 49C40.2857 49 43.2619 47.6395 43.2619 44.6711Z" fill="white"/>
<path d="M19.4524 44.6711C19.4524 41.2079 16.6746 40.3421 15.2857 40.3421C13.8968 40.3421 11.119 41.2079 11.119 44.6711C11.119 48.1342 14.0952 49 15.2857 49C16.6746 49 19.4524 48.1342 19.4524 44.6711Z" fill="white"/>
<path d="M1 2C2.78571 2.20614 6.47619 3.60789 6.95238 7.56579M6.95238 7.56579C11.2381 7.56579 38.1032 7.56579 51 7.56579L45.6429 26.7368H9.92857M6.95238 7.56579L9.92857 26.7368M9.92857 26.7368C10.127 29.6228 11.7143 35.3947 16.4762 35.3947C21.2381 35.3947 37.9048 35.3947 45.6429 35.3947M39.0952 40.3421C40.6825 40.3421 43.2619 41.7026 43.2619 44.6711C43.2619 47.6395 40.2857 49 39.0952 49C37.9048 49 34.9286 47.7632 34.9286 44.6711C34.9286 41.5789 37.5079 40.3421 39.0952 40.3421ZM15.2857 40.3421C16.6746 40.3421 19.4524 41.2079 19.4524 44.6711C19.4524 48.1342 16.6746 49 15.2857 49C14.0952 49 11.119 48.1342 11.119 44.6711C11.119 41.2079 13.8968 40.3421 15.2857 40.3421Z" stroke="#020202" stroke-width="3"/>
</svg>
