<svg width="771" height="645" viewBox="0 0 771 645" fill="none" xmlns="http://www.w3.org/2000/svg">
<path fill-rule="evenodd" clip-rule="evenodd" d="M274.119 87.7941C259.178 59.4494 247.11 30.0664 238 0H333.291C339.823 17.9618 347.628 35.5834 356.68 52.7546C390.069 116.094 439.497 171.555 501.027 214.721C562.558 257.888 634.491 287.567 711.098 301.394C731.671 305.108 752.429 307.65 773.25 309.026V391.096C746.368 389.597 719.558 386.455 693.008 381.663C602.466 365.32 517.448 330.242 444.724 279.224C372.001 228.205 313.582 162.655 274.119 87.7941Z" fill="#6474C9" fill-opacity="0.31"/>
<path fill-rule="evenodd" clip-rule="evenodd" d="M36.731 107.855C22.171 72.5881 10.1978 36.5542 0.847412 0H135.295C141.843 21.7076 149.486 43.1661 158.212 64.303C201.85 170 271.39 264.734 361.295 340.962C451.2 417.189 558.985 472.803 676.067 503.374C707.341 511.54 739.048 517.859 771 522.323V644.702C727.165 639.471 683.672 631.261 640.873 620.086C504.283 584.42 378.538 519.54 273.653 430.612C168.767 341.683 87.6399 231.163 36.731 107.855Z" fill="#6474C9" fill-opacity="0.31"/>
</svg>
