<svg width="80" height="69" viewBox="0 0 80 69" fill="none" xmlns="http://www.w3.org/2000/svg">
<path d="M24.9814 34.1532L12.0064 45V34.1532H6.01796C2.42489 34.1532 1.85931 31.3123 2.02566 29.8919V5.48649C2.02566 2.6973 4.68719 2 6.01796 2H56.4208C60.8123 2 61.2448 4.32432 60.9121 5.48649V29.8919C60.9121 33.9207 57.9179 34.4114 56.4208 34.1532H24.9814Z" fill="white" stroke="black" stroke-width="3"/>
<path d="M9.2 54.256C7.94133 54.1387 7.312 54.6667 7.312 55.84V56H9.2V57.664H7.312V64H5.584V57.664H4.368V56H5.584V55.84C5.584 54.7413 5.888 53.9093 6.496 53.344C7.11467 52.768 8.016 52.5173 9.2 52.592V54.256ZM13.6121 64.208C12.4388 64.208 11.4415 63.8027 10.6201 62.992C9.79879 62.1813 9.38813 61.184 9.38813 60C9.38813 58.816 9.79879 57.8187 10.6201 57.008C11.4415 56.1973 12.4388 55.792 13.6121 55.792C14.7961 55.792 15.7935 56.1973 16.6041 57.008C17.4255 57.8187 17.8361 58.816 17.8361 60C17.8361 61.184 17.4255 62.1813 16.6041 62.992C15.7935 63.8027 14.7961 64.208 13.6121 64.208ZM11.8361 61.808C12.3161 62.288 12.9081 62.528 13.6121 62.528C14.3161 62.528 14.9081 62.288 15.3881 61.808C15.8681 61.328 16.1081 60.7253 16.1081 60C16.1081 59.2747 15.8681 58.672 15.3881 58.192C14.9081 57.712 14.3161 57.472 13.6121 57.472C12.9081 57.472 12.3161 57.712 11.8361 58.192C11.3561 58.672 11.1161 59.2747 11.1161 60C11.1161 60.7253 11.3561 61.328 11.8361 61.808ZM21.1266 57.344C21.564 56.352 22.3853 55.856 23.5906 55.856V57.728C22.9293 57.6853 22.3533 57.8453 21.8626 58.208C21.372 58.56 21.1266 59.1467 21.1266 59.968V64H19.3986V56H21.1266V57.344ZM30.2594 56H31.9874V64H30.2594V62.976C29.7367 63.7973 28.91 64.208 27.7794 64.208C26.862 64.208 26.1207 63.9147 25.5554 63.328C24.99 62.7413 24.7074 61.936 24.7074 60.912V56H26.4354V60.736C26.4354 61.3333 26.5954 61.792 26.9154 62.112C27.2354 62.432 27.6727 62.592 28.2274 62.592C28.8354 62.592 29.326 62.4053 29.6994 62.032C30.0727 61.648 30.2594 61.0667 30.2594 60.288V56ZM42.744 55.792C43.6507 55.792 44.3813 56.0853 44.936 56.672C45.4907 57.2587 45.768 58.048 45.768 59.04V64H44.04V59.152C44.04 58.5973 43.9013 58.1707 43.624 57.872C43.3467 57.5627 42.968 57.408 42.488 57.408C41.9547 57.408 41.528 57.584 41.208 57.936C40.8987 58.288 40.744 58.816 40.744 59.52V64H39.016V59.152C39.016 58.5973 38.8827 58.1707 38.616 57.872C38.36 57.5627 37.992 57.408 37.512 57.408C36.9893 57.408 36.5627 57.5893 36.232 57.952C35.9013 58.304 35.736 58.8267 35.736 59.52V64H34.008V56H35.736V56.96C36.248 56.1813 37.0107 55.792 38.024 55.792C39.048 55.792 39.8053 56.2133 40.296 57.056C40.8293 56.2133 41.6453 55.792 42.744 55.792ZM49.1694 58.208C49.1694 58.4747 49.3134 58.688 49.6014 58.848C49.9 58.9973 50.2574 59.1307 50.6734 59.248C51.1 59.3547 51.5267 59.4827 51.9534 59.632C52.38 59.7813 52.7374 60.0373 53.0254 60.4C53.324 60.752 53.4734 61.2 53.4734 61.744C53.4734 62.512 53.1747 63.1147 52.5774 63.552C51.9907 63.9893 51.2494 64.208 50.3534 64.208C49.564 64.208 48.8867 64.0427 48.3214 63.712C47.756 63.3813 47.3454 62.9227 47.0894 62.336L48.5774 61.472C48.8547 62.24 49.4467 62.624 50.3534 62.624C51.26 62.624 51.7134 62.3253 51.7134 61.728C51.7134 61.472 51.564 61.264 51.2654 61.104C50.9774 60.944 50.62 60.8107 50.1934 60.704C49.7774 60.5867 49.356 60.4533 48.9294 60.304C48.5027 60.1547 48.14 59.9093 47.8414 59.568C47.5534 59.216 47.4094 58.7733 47.4094 58.24C47.4094 57.504 47.6867 56.912 48.2414 56.464C48.8067 56.016 49.5054 55.792 50.3374 55.792C50.9987 55.792 51.5854 55.9413 52.0974 56.24C52.62 56.528 53.02 56.9333 53.2974 57.456L51.8414 58.272C51.564 57.664 51.0627 57.36 50.3374 57.36C50.0067 57.36 49.7294 57.4347 49.5054 57.584C49.2814 57.7227 49.1694 57.9307 49.1694 58.208Z" fill="black"/>
<path d="M40.84 37.8V49H39V41.016L35.592 46.648H35.368L31.96 41V49H30.12V37.8H32.104L35.48 43.4L38.872 37.8H40.84ZM48.3531 41H50.1931L47.1211 49.256C46.3531 51.3253 45.0518 52.3067 43.2171 52.2V50.584C43.7611 50.616 44.1985 50.4987 44.5291 50.232C44.8598 49.976 45.1318 49.5707 45.3451 49.016L45.4251 48.856L42.0331 41H43.9211L46.3051 46.808L48.3531 41Z" fill="black"/>
</svg>
