<svg width="56" height="65" viewBox="0 0 56 65" fill="none" xmlns="http://www.w3.org/2000/svg">
<path d="M2.96 59.24H7.52V61H1.12V49.8H2.96V59.24ZM12.2996 61.208C11.1263 61.208 10.129 60.8027 9.30763 59.992C8.48629 59.1813 8.07563 58.184 8.07563 57C8.07563 55.816 8.48629 54.8187 9.30763 54.008C10.129 53.1973 11.1263 52.792 12.2996 52.792C13.4836 52.792 14.481 53.1973 15.2916 54.008C16.113 54.8187 16.5236 55.816 16.5236 57C16.5236 58.184 16.113 59.1813 15.2916 59.992C14.481 60.8027 13.4836 61.208 12.2996 61.208ZM10.5236 58.808C11.0036 59.288 11.5956 59.528 12.2996 59.528C13.0036 59.528 13.5956 59.288 14.0756 58.808C14.5556 58.328 14.7956 57.7253 14.7956 57C14.7956 56.2747 14.5556 55.672 14.0756 55.192C13.5956 54.712 13.0036 54.472 12.2996 54.472C11.5956 54.472 11.0036 54.712 10.5236 55.192C10.0436 55.672 9.80363 56.2747 9.80363 57C9.80363 57.7253 10.0436 58.328 10.5236 58.808ZM24.4541 53H26.1501V60.632C26.1501 61.848 25.7501 62.7813 24.9501 63.432C24.1501 64.0827 23.1795 64.408 22.0381 64.408C20.1928 64.408 18.9288 63.7627 18.2461 62.472L19.7341 61.608C20.1501 62.4293 20.9288 62.84 22.0701 62.84C22.8168 62.84 23.3981 62.6427 23.8141 62.248C24.2408 61.864 24.4541 61.3253 24.4541 60.632V59.656C23.8035 60.584 22.8755 61.048 21.6701 61.048C20.5395 61.048 19.5848 60.648 18.8061 59.848C18.0275 59.0373 17.6381 58.0613 17.6381 56.92C17.6381 55.7787 18.0275 54.808 18.8061 54.008C19.5848 53.1973 20.5395 52.792 21.6701 52.792C22.8755 52.792 23.8035 53.256 24.4541 54.184V53ZM20.0861 58.712C20.5768 59.192 21.1848 59.432 21.9101 59.432C22.6355 59.432 23.2381 59.192 23.7181 58.712C24.2088 58.232 24.4541 57.6347 24.4541 56.92C24.4541 56.2053 24.2088 55.608 23.7181 55.128C23.2381 54.648 22.6355 54.408 21.9101 54.408C21.1848 54.408 20.5768 54.648 20.0861 55.128C19.6061 55.608 19.3661 56.2053 19.3661 56.92C19.3661 57.6347 19.6061 58.232 20.0861 58.712ZM31.9403 61.208C30.7669 61.208 29.7696 60.8027 28.9483 59.992C28.1269 59.1813 27.7163 58.184 27.7163 57C27.7163 55.816 28.1269 54.8187 28.9483 54.008C29.7696 53.1973 30.7669 52.792 31.9403 52.792C33.1243 52.792 34.1216 53.1973 34.9323 54.008C35.7536 54.8187 36.1643 55.816 36.1643 57C36.1643 58.184 35.7536 59.1813 34.9323 59.992C34.1216 60.8027 33.1243 61.208 31.9403 61.208ZM30.1643 58.808C30.6443 59.288 31.2363 59.528 31.9403 59.528C32.6443 59.528 33.2363 59.288 33.7163 58.808C34.1963 58.328 34.4363 57.7253 34.4363 57C34.4363 56.2747 34.1963 55.672 33.7163 55.192C33.2363 54.712 32.6443 54.472 31.9403 54.472C31.2363 54.472 30.6443 54.712 30.1643 55.192C29.6843 55.672 29.4443 56.2747 29.4443 57C29.4443 57.7253 29.6843 58.328 30.1643 58.808ZM43.1188 53H44.8468V61H43.1188V59.976C42.5961 60.7973 41.7694 61.208 40.6388 61.208C39.7214 61.208 38.9801 60.9147 38.4148 60.328C37.8494 59.7413 37.5668 58.936 37.5668 57.912V53H39.2948V57.736C39.2948 58.3333 39.4548 58.792 39.7748 59.112C40.0948 59.432 40.5321 59.592 41.0868 59.592C41.6948 59.592 42.1854 59.4053 42.5588 59.032C42.9321 58.648 43.1188 58.0667 43.1188 57.288V53ZM51.3314 54.664H49.3474V58.504C49.3474 58.8347 49.422 59.0747 49.5714 59.224C49.7207 59.3627 49.9394 59.4427 50.2274 59.464C50.526 59.4747 50.894 59.4693 51.3314 59.448V61C50.0087 61.16 49.0594 61.048 48.4834 60.664C47.9074 60.2693 47.6194 59.5493 47.6194 58.504V54.664H46.1474V53H47.6194V51.272L49.3474 50.76V53H51.3314V54.664Z" fill="black"/>
<path d="M49.9973 24.3542C49.7651 6.31557 35.0942 1.93577 27.7878 2.00071C19.7879 2.00071 4.03958 6.47142 5.04603 24.3542C6.05247 42.2371 20.6266 46.9026 27.7878 47C35.2877 46.9675 50.2296 42.3929 49.9973 24.3542Z" fill="white"/>
<path d="M25.4168 14.8577H20.433C19.4653 15.02 17.5395 16.0265 17.5782 18.7537C17.6169 21.4809 17.5943 29.9223 17.5782 33.8022C17.5943 34.1918 18.9911 34.8541 24.4491 34.3866M31.9007 18.7537L36.8845 24.3542M36.8845 24.3542L32.3845 29.76M36.8845 24.3542H25.4168M27.7878 2.00071C35.0942 1.93577 49.7651 6.31557 49.9973 24.3542C50.2296 42.3929 35.2877 46.9675 27.7878 47C20.6266 46.9026 6.05247 42.2371 5.04603 24.3542C4.03958 6.47142 19.7879 2.00071 27.7878 2.00071Z" stroke="black" stroke-width="3"/>
</svg>
