<svg width="79" height="70" viewBox="0 0 79 70" fill="none" xmlns="http://www.w3.org/2000/svg">
<path d="M37.4922 69.5305V0.530518L45.5614 0.546695L45.4994 31.4794L70.9922 31.5305V0.530518L78.5615 0.545693L78.423 69.6126L70.9922 69.5305V39.0305L45.4843 38.9794L45.423 69.5464L37.4922 69.5305Z" fill="white"/>
<path fill-rule="evenodd" clip-rule="evenodd" d="M45.4922 0.590576L45.4922 69.5906H18.6039C12.2681 68.9287 -0.217923 64.1301 0.523823 50.2309C1.26557 36.3316 9.48659 33.5186 13.5044 33.8496C9.64112 32.3604 2.10003 26.9992 2.84178 17.4683C3.58352 7.93734 10.2592 3.23806 13.5044 2.07978C14.277 1.58338 17.1204 0.590576 22.3126 0.590576L45.4922 0.590576ZM37.6111 30.3748L37.6111 8.03662L18.6039 8.03662C16.2859 8.03662 11.4646 10.2208 10.7228 18.9575C9.98109 27.6942 17.2131 30.2093 20.9218 30.3748L37.6111 30.3748ZM37.6111 61.6481L37.6111 38.3172L18.6039 38.3172C15.0497 38.3172 7.74812 43.2812 7.47769 50.2309C7.20726 57.1805 14.7406 61.8136 18.6039 61.6481L37.6111 61.6481Z" fill="white"/>
<path d="M37.6111 38.3172L37.6111 61.6481L18.6039 61.6481C14.7406 61.8136 7.20726 57.1805 7.47769 50.2309C7.74812 43.2812 15.0497 38.3172 18.6039 38.3172L37.6111 38.3172Z" fill="#6474C9"/>
<path d="M37.6111 8.03662L37.6111 30.3748L20.9218 30.3748C17.2131 30.2093 9.98109 27.6942 10.7228 18.9575C11.4646 10.2208 16.2859 8.03662 18.6039 8.03662L37.6111 8.03662Z" fill="white"/>
<path d="M37.6111 8.03662L37.6111 30.3748L20.9218 30.3748C17.2131 30.2093 9.98109 27.6942 10.7228 18.9575C11.4646 10.2208 16.2859 8.03662 18.6039 8.03662L37.6111 8.03662Z" fill="#6474C9"/>
<rect x="45.4824" y="69.5632" width="31" height="26" transform="rotate(-89.9837 45.4824 69.5632)" fill="#C9B964"/>
<rect x="45.4932" y="31.563" width="31" height="26" transform="rotate(-89.9837 45.4932 31.563)" fill="#C9B964"/>
</svg>
