<svg width="59" height="64" viewBox="0 0 59 64" fill="none" xmlns="http://www.w3.org/2000/svg">
<path d="M23 42.5C34.8007 42.5 44.5 33.3934 44.5 22C44.5 10.6066 34.8007 1.5 23 1.5C11.1993 1.5 1.5 10.6066 1.5 22C1.5 33.3934 11.1993 42.5 23 42.5Z" fill="white" stroke="black" stroke-width="3"/>
<path d="M9.66663 36.8834C12 34.6667 17.9333 30.2334 23 30.2334C28.0666 30.2334 34.2222 34.0334 36.6666 35.9334" stroke="black" stroke-width="3"/>
<path d="M30.1667 17.2499C30.1667 20.6188 26.9954 23.6666 22.6667 23.6666C18.3381 23.6666 15.1667 20.6188 15.1667 17.2499C15.1667 13.8811 18.3381 10.8333 22.6667 10.8333C26.9954 10.8333 30.1667 13.8811 30.1667 17.2499Z" fill="white" stroke="black" stroke-width="3"/>
<path d="M6.248 50.8C7.304 50.8 8.184 51.152 8.888 51.856C9.60267 52.56 9.96 53.4347 9.96 54.48C9.96 55.5147 9.60267 56.3893 8.888 57.104C8.184 57.808 7.304 58.16 6.248 58.16H3.96V62H2.12V50.8H6.248ZM6.248 56.432C6.792 56.432 7.24 56.2507 7.592 55.888C7.944 55.5147 8.12 55.0453 8.12 54.48C8.12 53.9147 7.944 53.4507 7.592 53.088C7.24 52.7147 6.792 52.528 6.248 52.528H3.96V56.432H6.248ZM13.0173 55.344C13.4546 54.352 14.2759 53.856 15.4813 53.856V55.728C14.8199 55.6853 14.2439 55.8453 13.7533 56.208C13.2626 56.56 13.0173 57.1467 13.0173 57.968V62H11.2893V54H13.0173V55.344ZM20.159 62.208C18.9857 62.208 17.9883 61.8027 17.167 60.992C16.3457 60.1813 15.935 59.184 15.935 58C15.935 56.816 16.3457 55.8187 17.167 55.008C17.9883 54.1973 18.9857 53.792 20.159 53.792C21.343 53.792 22.3403 54.1973 23.151 55.008C23.9723 55.8187 24.383 56.816 24.383 58C24.383 59.184 23.9723 60.1813 23.151 60.992C22.3403 61.8027 21.343 62.208 20.159 62.208ZM18.383 59.808C18.863 60.288 19.455 60.528 20.159 60.528C20.863 60.528 21.455 60.288 21.935 59.808C22.415 59.328 22.655 58.7253 22.655 58C22.655 57.2747 22.415 56.672 21.935 56.192C21.455 55.712 20.863 55.472 20.159 55.472C19.455 55.472 18.863 55.712 18.383 56.192C17.903 56.672 17.663 57.2747 17.663 58C17.663 58.7253 17.903 59.328 18.383 59.808ZM32.3523 54V62H30.6243V55.664H27.9683V62H26.2403V55.664H25.0243V54H26.2403V53.84C26.2403 51.6747 27.4456 50.592 29.8563 50.592C30.4216 50.592 31.0136 50.6613 31.6323 50.8V52.384C31.0669 52.2987 30.4749 52.256 29.8563 52.256C29.2163 52.256 28.7416 52.3733 28.4323 52.608C28.1229 52.8427 27.9683 53.2533 27.9683 53.84V54H32.3523ZM34.3518 62V50.32H36.0798V62H34.3518ZM39.4461 58.736C39.5741 59.344 39.8675 59.8133 40.3261 60.144C40.7848 60.464 41.3448 60.624 42.0061 60.624C42.9235 60.624 43.6115 60.2933 44.0701 59.632L45.4941 60.464C44.7048 61.6267 43.5368 62.208 41.9901 62.208C40.6888 62.208 39.6381 61.8133 38.8381 61.024C38.0381 60.224 37.6381 59.216 37.6381 58C37.6381 56.8053 38.0328 55.808 38.8221 55.008C39.6115 54.1973 40.6248 53.792 41.8621 53.792C43.0355 53.792 43.9955 54.2027 44.7421 55.024C45.4995 55.8453 45.8781 56.8427 45.8781 58.016C45.8781 58.1973 45.8568 58.4373 45.8141 58.736H39.4461ZM39.4301 57.328H44.1341C44.0168 56.6773 43.7448 56.1867 43.3181 55.856C42.9021 55.5253 42.4115 55.36 41.8461 55.36C41.2061 55.36 40.6728 55.536 40.2461 55.888C39.8195 56.24 39.5475 56.72 39.4301 57.328Z" fill="black"/>
</svg>
