<svg width="20" height="19" viewBox="0 0 20 19" fill="none" xmlns="http://www.w3.org/2000/svg">
<path d="M8.94433 2.86706C9.18222 2.13491 9.35096 1.61698 9.50276 1.25584C9.578 1.07685 9.64055 0.957614 9.69339 0.879706C9.73775 0.814304 9.76319 0.796108 9.76574 0.794343C9.91224 0.716643 10.0878 0.716643 10.2343 0.794343C10.2368 0.796109 10.2623 0.814306 10.3066 0.879706C10.3594 0.957613 10.422 1.07685 10.4972 1.25584C10.649 1.61698 10.8178 2.13491 11.0557 2.86706L11.8572 5.33382C11.8649 5.35759 11.8725 5.38117 11.8801 5.40455C11.9877 5.73756 12.0822 6.0299 12.271 6.25518C12.4291 6.44394 12.6314 6.59087 12.8598 6.68296C13.1324 6.79287 13.4396 6.79241 13.7896 6.79187C13.8141 6.79183 13.8389 6.7918 13.8639 6.7918H16.4576C17.2274 6.7918 17.7722 6.79223 18.1625 6.825C18.356 6.84125 18.4887 6.8639 18.5792 6.89007C18.6551 6.91206 18.6803 6.93065 18.6827 6.9325C18.8019 7.04783 18.8561 7.21475 18.8275 7.3781C18.8266 7.38109 18.8171 7.41091 18.7687 7.47328C18.7109 7.5476 18.6168 7.64394 18.4698 7.77081C18.1733 8.02678 17.7329 8.34731 17.1101 8.7998L15.0117 10.3243C14.9915 10.339 14.9714 10.3536 14.9515 10.368C14.6681 10.5733 14.4192 10.7535 14.2633 11.0026C14.1327 11.2114 14.0554 11.4491 14.0384 11.6948C14.0181 11.988 14.1135 12.28 14.2221 12.6127C14.2298 12.6361 14.2375 12.6596 14.2452 12.6834L15.0467 15.1502C15.2846 15.8823 15.4525 16.4005 15.542 16.7819C15.5863 16.9709 15.6058 17.1042 15.6088 17.1983C15.6114 17.2772 15.6015 17.3069 15.6005 17.3098C15.5276 17.4588 15.3856 17.562 15.2214 17.5852C15.2184 17.5853 15.1871 17.5856 15.1127 17.5587C15.0242 17.5267 14.9035 17.467 14.7374 17.3664C14.4023 17.1635 13.9614 16.8437 13.3386 16.3912L11.2402 14.8666C11.22 14.8519 11.2 14.8373 11.1801 14.8229C10.8973 14.6167 10.649 14.4358 10.3639 14.3645C10.125 14.3047 9.87502 14.3047 9.6361 14.3645C9.35097 14.4358 9.1027 14.6167 8.81987 14.8229C8.80002 14.8373 8.77999 14.8519 8.75977 14.8666L6.66142 16.3912C6.03862 16.8437 5.59767 17.1635 5.26259 17.3664C5.09651 17.467 4.97582 17.5267 4.88728 17.5587C4.81298 17.5855 4.78169 17.5853 4.77858 17.5852C4.61438 17.562 4.47238 17.4588 4.39953 17.3098C4.3985 17.3069 4.38862 17.2772 4.39117 17.1983C4.39422 17.1042 4.4137 16.9709 4.45804 16.7819C4.5475 16.4005 4.71542 15.8823 4.95331 15.1502L5.75481 12.6834C5.76253 12.6596 5.77022 12.6361 5.77785 12.6127C5.8865 12.28 5.98189 11.988 5.96159 11.6948C5.94458 11.4491 5.86734 11.2114 5.73669 11.0026C5.58077 10.7535 5.33194 10.5733 5.04849 10.368C5.02859 10.3536 5.00852 10.339 4.9883 10.3243L2.88995 8.79981C2.26715 8.34731 1.82671 8.02678 1.53016 7.77081C1.38317 7.64394 1.28911 7.5476 1.23134 7.47328C1.18285 7.4109 1.17341 7.38107 1.17251 7.3781C1.14388 7.21475 1.19812 7.04783 1.31729 6.9325C1.31974 6.93063 1.3449 6.91205 1.42083 6.89007C1.51125 6.8639 1.64398 6.84125 1.83747 6.825C2.22784 6.79223 2.77256 6.7918 3.54239 6.7918H6.1361C6.16109 6.7918 6.18587 6.79183 6.21043 6.79187C6.56041 6.79241 6.86764 6.79287 7.14023 6.68296C7.36864 6.59087 7.57086 6.44394 7.72903 6.25517C7.91779 6.0299 8.01229 5.73756 8.11993 5.40455C8.12748 5.38117 8.1351 5.35759 8.14283 5.33382L8.94433 2.86706Z" fill="#C9B964" stroke="#C9B964"/>
</svg>
