<svg width="168" height="55" viewBox="0 0 168 55" fill="none" xmlns="http://www.w3.org/2000/svg">
<path d="M13 1.5C6.64873 1.5 1.5 6.64873 1.5 13V42C1.5 48.3513 6.64873 53.5 13 53.5H140.5C154.859 53.5 166.5 41.8594 166.5 27.5C166.5 13.1406 154.859 1.5 140.5 1.5H13Z" fill="#6474C9" stroke="#C1CAF4" stroke-width="3"/>
<path d="M42.32 37.336C38.792 37.336 36.536 35.656 35.6 33.184L38.912 31.264C39.512 32.656 40.544 33.592 42.44 33.592C44.264 33.592 44.72 32.872 44.72 32.224C44.72 31.192 43.76 30.784 41.24 30.088C38.744 29.392 36.296 28.192 36.296 24.976C36.296 21.736 39.032 19.864 41.936 19.864C44.696 19.864 46.856 21.184 48.08 23.656L44.84 25.552C44.264 24.352 43.472 23.608 41.936 23.608C40.736 23.608 40.136 24.208 40.136 24.88C40.136 25.648 40.544 26.176 43.16 26.968C45.704 27.736 48.56 28.624 48.56 32.176C48.56 35.416 45.968 37.336 42.32 37.336ZM54.2019 33.304H60.9219V37H50.3619V20.2H60.8019V23.896H54.2019V26.68H60.2019V30.328H54.2019V33.304ZM74.0028 37L73.1628 34.36H66.9228L66.0828 37H61.8828L67.5948 20.2H72.4908L78.2028 37H74.0028ZM68.0748 30.76H72.0108L70.0428 24.592L68.0748 30.76ZM88.4673 37L85.2993 31.48H83.4753V37H79.6353V20.2H86.3553C89.5473 20.2 92.1153 22.768 92.1153 25.96C92.1153 28.024 90.8673 29.896 89.0193 30.832L92.5953 37H88.4673ZM83.4753 23.8V28.12H86.3553C87.4113 28.12 88.2753 27.184 88.2753 25.96C88.2753 24.736 87.4113 23.8 86.3553 23.8H83.4753ZM102.183 37.336C97.1186 37.336 93.4466 33.544 93.4466 28.6C93.4466 23.656 97.1186 19.864 102.183 19.864C105.231 19.864 107.919 21.376 109.383 23.752L106.071 25.672C105.327 24.376 103.887 23.608 102.183 23.608C99.2066 23.608 97.2866 25.6 97.2866 28.6C97.2866 31.6 99.2066 33.592 102.183 33.592C103.887 33.592 105.351 32.824 106.071 31.528L109.383 33.448C107.943 35.824 105.255 37.336 102.183 37.336ZM120.302 20.2H124.142V37H120.302V30.328H115.022V37H111.182V20.2H115.022V26.632H120.302V20.2Z" fill="white"/>
</svg>
