<svg width="1294" height="362" viewBox="0 0 1294 362" fill="none" xmlns="http://www.w3.org/2000/svg">
<path d="M33.6 20.8C52.128 20.8 65.28 35.872 65.28 54.4C65.28 72.928 52.128 88 33.6 88H8.352V20.8H33.6ZM33.6 83.2C49.44 83.2 60.288 70.336 60.288 54.4C60.288 38.464 49.44 25.6 33.6 25.6H13.44V83.2H33.6ZM79.542 28.384C77.43 28.384 75.702 26.656 75.702 24.544C75.702 22.528 77.43 20.8 79.542 20.8C81.654 20.8 83.382 22.528 83.382 24.544C83.382 26.656 81.654 28.384 79.542 28.384ZM77.142 88V40H81.942V88H77.142ZM99.9998 52.576C99.9998 65.44 129.088 57.856 129.088 75.424C129.088 83.296 122.176 89.056 111.904 89.056C102.304 89.056 95.9678 84.544 93.6638 78.4L97.7918 76C99.5198 81.184 104.704 84.448 111.904 84.448C118.624 84.448 124.288 81.472 124.288 75.424C124.288 62.368 95.1998 69.856 95.1998 52.576C95.1998 44.992 101.728 38.944 111.52 38.944C119.296 38.944 125.248 42.688 127.84 48.544L123.808 50.848C121.792 45.856 116.8 43.552 111.52 43.552C105.28 43.552 99.9998 46.816 99.9998 52.576ZM161.282 89.056C146.786 89.056 136.034 78.208 136.034 64C136.034 49.792 146.786 38.944 161.282 38.944C170.69 38.944 178.754 43.744 182.21 51.232L178.274 53.536C175.49 47.488 168.962 43.552 161.282 43.552C149.666 43.552 140.93 52.576 140.93 64C140.93 75.424 149.666 84.448 161.282 84.448C169.058 84.448 175.394 80.416 178.562 74.464L182.594 76.864C178.754 84.256 170.69 89.056 161.282 89.056ZM214.626 89.056C200.61 89.056 189.378 78.208 189.378 64C189.378 49.792 200.61 38.944 214.626 38.944C228.546 38.944 239.778 49.792 239.778 64C239.778 78.208 228.546 89.056 214.626 89.056ZM214.626 84.448C226.05 84.448 234.882 75.424 234.882 64C234.882 52.576 226.05 43.552 214.626 43.552C203.202 43.552 194.274 52.576 194.274 64C194.274 75.424 203.202 84.448 214.626 84.448ZM284.687 40H289.775L269.519 88H263.663L243.311 40H248.495L266.543 83.008L284.687 40ZM318.211 38.944C332.803 38.944 341.923 51.04 341.923 64.192C341.923 64.96 341.827 65.728 341.827 66.496H298.339C299.491 77.344 307.747 84.448 318.691 84.448C326.563 84.448 332.515 80.8 335.299 75.712L339.523 78.208C335.587 84.736 328.099 89.056 318.595 89.056C303.811 89.056 293.347 78.496 293.347 64C293.347 49.888 303.523 38.944 318.211 38.944ZM318.211 43.552C307.267 43.552 299.299 51.136 298.339 61.792H336.931C335.875 50.08 327.619 43.552 318.211 43.552ZM357.942 49.408C361.206 41.824 367.446 39.328 373.974 39.328V43.936C365.718 43.936 357.942 49.024 357.942 61.312V88H353.142V40H357.942V49.408ZM385.115 81.472L379.931 101.44H375.515L379.163 81.472H385.115Z" fill="#6474C9"/>
<path d="M627.632 201H632.528V249H627.632V238.152C623.6 245.352 616.208 250.056 606.992 250.056C593.36 250.056 582.128 239.208 582.128 225C582.128 210.792 593.36 199.944 606.992 199.944C616.208 199.944 623.6 204.648 627.632 211.848V201ZM607.376 245.448C618.8 245.448 627.632 236.424 627.632 225C627.632 213.576 618.8 204.552 607.376 204.552C595.952 204.552 587.024 213.576 587.024 225C587.024 236.424 595.952 245.448 607.376 245.448ZM669.251 199.944C680.675 199.944 687.875 207.528 687.875 219.144V249H682.979V219.144C682.979 210.312 677.891 204.552 668.867 204.552C659.459 204.552 652.067 210.696 652.067 223.656V249H647.267V201H652.067V210.12C655.715 203.016 661.859 199.944 669.251 199.944ZM743.791 181.8H748.591V249H743.791V237.864C739.855 245.256 732.463 250.056 723.151 250.056C709.423 250.056 698.287 239.208 698.287 225C698.287 210.792 709.423 199.944 723.151 199.944C732.463 199.944 739.855 204.744 743.791 212.136V181.8ZM723.439 245.448C734.863 245.448 743.791 236.424 743.791 225C743.791 213.576 734.863 204.552 723.439 204.552C712.015 204.552 703.087 213.576 703.087 225C703.087 236.424 712.015 245.448 723.439 245.448Z" fill="#6474C9"/>
<path d="M742.728 292.8H747.528V360H742.728V348.864C738.792 356.256 731.4 361.056 722.088 361.056C708.36 361.056 697.224 350.208 697.224 336C697.224 321.792 708.36 310.944 722.088 310.944C731.4 310.944 738.792 315.744 742.728 323.136V292.8ZM722.376 356.448C733.8 356.448 742.728 347.424 742.728 336C742.728 324.576 733.8 315.552 722.376 315.552C710.952 315.552 702.024 324.576 702.024 336C702.024 347.424 710.952 356.448 722.376 356.448ZM764.667 300.384C762.555 300.384 760.827 298.656 760.827 296.544C760.827 294.528 762.555 292.8 764.667 292.8C766.779 292.8 768.507 294.528 768.507 296.544C768.507 298.656 766.779 300.384 764.667 300.384ZM762.267 360V312H767.067V360H762.267ZM785.125 324.576C785.125 337.44 814.213 329.856 814.213 347.424C814.213 355.296 807.301 361.056 797.029 361.056C787.429 361.056 781.093 356.544 778.789 350.4L782.917 348C784.645 353.184 789.829 356.448 797.029 356.448C803.749 356.448 809.413 353.472 809.413 347.424C809.413 334.368 780.325 341.856 780.325 324.576C780.325 316.992 786.853 310.944 796.645 310.944C804.421 310.944 810.373 314.688 812.965 320.544L808.933 322.848C806.917 317.856 801.925 315.552 796.645 315.552C790.405 315.552 785.125 318.816 785.125 324.576ZM846.407 361.056C831.911 361.056 821.159 350.208 821.159 336C821.159 321.792 831.911 310.944 846.407 310.944C855.815 310.944 863.879 315.744 867.335 323.232L863.399 325.536C860.615 319.488 854.087 315.552 846.407 315.552C834.791 315.552 826.055 324.576 826.055 336C826.055 347.424 834.791 356.448 846.407 356.448C854.183 356.448 860.519 352.416 863.687 346.464L867.719 348.864C863.879 356.256 855.815 361.056 846.407 361.056ZM912.796 312H917.596V360H912.796V350.88C909.148 357.984 903.004 361.056 895.612 361.056C884.188 361.056 876.988 353.472 876.988 341.856V312H881.884V341.856C881.884 350.688 886.972 356.448 895.996 356.448C905.404 356.448 912.796 350.304 912.796 337.344V312ZM935.687 324.576C935.687 337.44 964.775 329.856 964.775 347.424C964.775 355.296 957.863 361.056 947.591 361.056C937.991 361.056 931.655 356.544 929.351 350.4L933.479 348C935.207 353.184 940.391 356.448 947.591 356.448C954.311 356.448 959.975 353.472 959.975 347.424C959.975 334.368 930.887 341.856 930.887 324.576C930.887 316.992 937.415 310.944 947.207 310.944C954.983 310.944 960.935 314.688 963.527 320.544L959.495 322.848C957.479 317.856 952.487 315.552 947.207 315.552C940.967 315.552 935.687 318.816 935.687 324.576ZM976.75 324.576C976.75 337.44 1005.84 329.856 1005.84 347.424C1005.84 355.296 998.926 361.056 988.654 361.056C979.054 361.056 972.718 356.544 970.414 350.4L974.542 348C976.27 353.184 981.454 356.448 988.654 356.448C995.374 356.448 1001.04 353.472 1001.04 347.424C1001.04 334.368 971.95 341.856 971.95 324.576C971.95 316.992 978.478 310.944 988.27 310.944C996.046 310.944 1002 314.688 1004.59 320.544L1000.56 322.848C998.542 317.856 993.55 315.552 988.27 315.552C982.03 315.552 976.75 318.816 976.75 324.576Z" fill="#6474C9"/>
<path d="M427.192 122.408C430.456 114.824 436.696 112.328 443.224 112.328V116.936C434.968 116.936 427.192 122.024 427.192 134.312V161H422.392V113H427.192V122.408ZM471.648 111.944C486.24 111.944 495.36 124.04 495.36 137.192C495.36 137.96 495.264 138.728 495.264 139.496H451.776C452.928 150.344 461.184 157.448 472.128 157.448C480 157.448 485.952 153.8 488.736 148.712L492.96 151.208C489.024 157.736 481.536 162.056 472.032 162.056C457.248 162.056 446.784 151.496 446.784 137C446.784 122.888 456.96 111.944 471.648 111.944ZM471.648 116.552C460.704 116.552 452.736 124.136 451.776 134.792H490.368C489.312 123.08 481.056 116.552 471.648 116.552ZM548.82 113H553.716V161H548.82V150.152C544.788 157.352 537.396 162.056 528.18 162.056C514.548 162.056 503.316 151.208 503.316 137C503.316 122.792 514.548 111.944 528.18 111.944C537.396 111.944 544.788 116.648 548.82 123.848V113ZM528.564 157.448C539.988 157.448 548.82 148.424 548.82 137C548.82 125.576 539.988 116.552 528.564 116.552C517.14 116.552 508.212 125.576 508.212 137C508.212 148.424 517.14 157.448 528.564 157.448ZM610.791 93.8H615.591V161H610.791V149.864C606.855 157.256 599.463 162.056 590.151 162.056C576.423 162.056 565.287 151.208 565.287 137C565.287 122.792 576.423 111.944 590.151 111.944C599.463 111.944 606.855 116.744 610.791 124.136V93.8ZM590.439 157.448C601.863 157.448 610.791 148.424 610.791 137C610.791 125.576 601.863 116.552 590.439 116.552C579.015 116.552 570.087 125.576 570.087 137C570.087 148.424 579.015 157.448 590.439 157.448Z" fill="#6474C9"/>
</svg>
