<svg width="65" height="60" viewBox="0 0 65 60" fill="none" xmlns="http://www.w3.org/2000/svg">
<path fill-rule="evenodd" clip-rule="evenodd" d="M59.3228 58.6442C60.3086 58.9749 62.502 59.3718 63.3892 58.3135C64.2764 57.2551 64.0053 55.8881 63.7589 55.3369L43.4266 36.155C47.9859 30.7532 53.8515 17.2376 40.8388 6.38984C22.3549 -5.51621 4.98013 4.07478 1.28333 17.9652C-0.195409 32.1863 4.24062 35.1628 11.6342 40.4544C19.0278 45.746 31.5969 44.4231 38.9904 39.7929C41.6521 42.1741 53.6543 53.3526 59.3228 58.6442ZM7.56774 17.9652C4.98009 24.2489 8.43033 30.5327 10.8949 32.8477C14.7149 36.8164 25.0166 42.9017 35.6633 35.4935C46.3101 28.0853 42.8104 17.6344 39.7298 13.335C38.0046 10.9097 32.632 6.12526 24.9426 6.38984C15.331 6.72056 10.9416 9.77213 7.56774 17.9652Z" fill="white" stroke="white"/>
</svg>
